<svg version="1.1" id="Layer_1" xmlns="http://www.w3.org/2000/svg" xmlns:xlink="http://www.w3.org/1999/xlink" x="0px" y="0px"
	 width="100%" viewBox="0 0 1080 1080" enable-background="new 0 0 1080 1080" xml:space="preserve">
<path fill="#000000" opacity="1.000000" stroke="none"
	d="
M470.019806,735.002075
	C461.106445,728.826721 451.731567,723.556824 444.261902,716.320374
	C435.352631,707.689270 427.784760,697.723389 421.689392,686.574951
	C413.445679,671.497131 407.355957,655.702393 403.710938,639.066284
	C401.044128,626.894836 399.371521,614.450012 398.089844,602.040955
	C394.276703,565.121643 395.921112,528.051331 396.237305,491.060211
	C396.443207,466.972412 398.472870,442.932648 404.681793,419.330261
	C409.299683,401.775909 415.552979,385.035217 425.174164,369.801941
	C433.919128,355.956085 445.005371,344.039948 458.730286,334.657562
	C474.872864,323.622559 492.851776,317.322937 511.831757,314.218597
	C523.137878,312.369324 534.828857,311.766876 546.287292,312.195496
	C567.366882,312.984009 588.089783,316.317780 607.347595,325.771332
	C626.335083,335.092072 641.543457,348.736755 653.549927,366.055603
	C667.246826,385.812866 674.774902,408.142120 679.818176,431.307861
	C682.128235,441.918732 683.435791,452.887634 683.839783,463.744720
	C684.698059,486.805603 684.770935,509.898743 684.967407,532.980347
	C685.127747,551.808716 685.764832,570.677734 684.829285,589.460938
	C683.235840,621.451721 677.793457,652.725830 663.028748,681.696899
	C650.104431,707.056885 631.764832,727.081421 605.435974,738.771484
	C591.862305,744.798218 577.663147,749.068481 562.664612,750.012085
	C556.289490,750.413147 549.922546,750.945007 543.255249,751.439331
	C543.255249,727.979736 543.255249,705.239807 543.255249,682.215515
	C552.852417,681.705688 562.071045,679.542664 570.179749,674.241882
	C582.531616,666.167114 588.979614,653.794556 592.833984,640.179749
	C596.688049,626.566223 598.958801,612.604248 599.048889,598.326721
	C599.207275,573.244690 599.747070,548.165222 599.971741,523.083313
	C600.120972,506.421112 600.558044,489.732666 599.847595,473.099457
	C599.093018,455.431824 597.793701,437.718750 592.014343,420.738831
	C586.278809,403.887970 576.985352,389.903107 559.033630,384.681366
	C538.680054,378.761017 519.223938,380.583038 503.350220,396.327789
	C494.176819,405.426727 489.691101,417.370728 487.133667,429.778351
	C485.138580,439.457672 483.327789,449.366364 483.171906,459.200684
	C482.449493,504.771088 481.819519,550.355896 482.246613,595.925354
	C482.423767,614.826050 485.287201,633.823425 493.218170,651.309875
	C501.687927,669.984192 515.160278,681.129822 539.640503,682.081360
	C539.640503,704.795349 539.640503,727.530151 539.640503,751.064819
	C515.513306,750.878967 492.089142,746.923340 470.019806,735.002075
z"/>
<path fill="#000000" opacity="1.000000" stroke="none"
	d="
M126.999008,462.013550
	C134.472702,450.144104 141.967529,438.681732 149.340912,427.141754
	C159.917175,410.589020 170.421371,393.990112 180.925980,377.391693
	C192.884872,358.495422 204.779419,339.558258 216.820999,320.714935
	C217.611069,319.478607 219.411224,318.119965 220.747620,318.113678
	C248.578842,317.983185 276.410919,318.039734 304.242828,318.074036
	C304.363312,318.074188 304.483490,318.284912 305.002075,318.769348
	C305.002075,406.800110 305.002075,495.204102 305.002075,584.007507
	C321.136322,584.007507 336.878937,584.007507 352.807312,584.007507
	C352.807312,607.026917 352.807312,629.647522 352.807312,652.669067
	C337.207794,652.669067 321.465210,652.669067 305.323578,652.669067
	C305.323578,683.470215 305.323578,713.876953 305.323578,744.641541
	C276.522675,744.641541 248.116623,744.641541 218.969208,744.641541
	C218.969208,642.656433 218.969208,540.393066 218.969208,438.129669
	C218.653717,438.087524 218.338226,438.045410 218.022751,438.003265
	C187.516373,486.507904 157.009995,535.012512 126.264839,583.896790
	C156.142197,583.896790 185.827103,583.896790 215.754654,583.896790
	C215.754654,607.039673 215.754654,629.777771 215.754654,652.758301
	C158.610916,652.758301 101.531502,652.758301 43.815891,652.758301
	C43.209797,642.290405 42.704514,631.835999 41.963486,621.398315
	C41.502174,614.900635 40.133068,608.417358 40.259701,601.948975
	C40.322746,598.728577 42.456024,595.318481 44.294636,592.398254
	C65.473740,558.760315 86.754768,525.186462 108.058830,491.627380
	C114.279480,481.828339 120.659126,472.130280 126.999008,462.013550
z"/>
<path fill="#000000" opacity="1.000000" stroke="none"
	d="
M827.277832,564.223755
	C822.999329,570.836121 818.990234,577.186340 814.673462,584.023926
	C845.143860,584.023926 874.766846,584.023926 904.694580,584.023926
	C904.694580,606.915649 904.694580,629.652405 904.694580,652.771240
	C903.409302,652.842102 901.977478,652.989807 900.545654,652.990112
	C846.220886,653.001831 791.896057,652.952942 737.571655,653.089539
	C733.238647,653.100403 732.044983,651.958313 731.854431,647.528137
	C731.247498,633.424316 730.332275,619.313293 728.867432,605.274902
	C728.069641,597.628784 732.823608,592.824402 736.256287,587.330994
	C754.755737,557.725708 773.398926,528.209961 792.036987,498.691406
	C803.124268,481.131683 814.318787,463.639771 825.419617,446.088562
	C841.328857,420.934662 857.179260,395.743561 873.088013,370.589325
	C883.583618,353.994049 894.104919,337.414642 904.729492,320.901978
	C905.545166,319.634186 907.269104,318.129181 908.578735,318.121735
	C936.544312,317.961731 964.511047,318.000336 992.863037,318.000336
	C992.863037,406.664642 992.863037,495.060577 992.863037,583.854309
	C1008.981323,583.854309 1024.722412,583.854309 1040.729614,583.854309
	C1040.729614,606.986816 1040.729614,629.723083 1040.729614,652.858948
	C1025.014038,652.858948 1009.272888,652.858948 993.140015,652.858948
	C993.140015,683.656799 993.140015,714.060730 993.140015,744.731201
	C964.343567,744.731201 935.941345,744.731201 907.248230,744.731201
	C907.248230,642.903076 907.248230,541.059631 907.248230,439.216125
	C906.822754,439.098083 906.397278,438.980072 905.971741,438.862061
	C902.978210,443.611847 899.981506,448.359650 896.991638,453.111816
	C886.023499,470.544891 875.031189,487.962830 864.098083,505.417877
	C851.886047,524.914673 839.728516,544.445557 827.277832,564.223755
z"/>
</svg>
