<svg version="1.1" id="Layer_1" xmlns="http://www.w3.org/2000/svg" xmlns:xlink="http://www.w3.org/1999/xlink" x="0px" y="0px"
	 width="100%" viewBox="0 0 320 320" enable-background="new 0 0 320 320" xml:space="preserve">
<path fill="#000000" opacity="1.000000" stroke="none"
	d="
M141.188385,220.033478
	C125.915573,211.565125 119.866821,197.971573 119.077690,181.708038
	C118.363228,166.983398 117.397087,152.169159 118.281548,137.499313
	C119.060951,124.571999 122.718536,112.084480 132.848465,102.531052
	C138.931870,96.793846 146.405258,94.206245 154.157944,93.227631
	C162.884583,92.126076 171.801788,92.709030 180.086411,96.560699
	C192.184219,102.185219 198.928467,112.149406 201.871674,124.689262
	C203.274063,130.664276 203.756027,136.944046 203.910278,143.104431
	C204.214584,155.257401 204.239578,167.429382 203.932938,179.582230
	C203.623383,191.850464 199.943680,203.272446 191.774017,212.496597
	C184.177032,221.074127 173.877945,224.216614 161.998123,223.984665
	C161.998123,217.623978 161.889526,211.482803 162.096054,205.352249
	C162.134216,204.219437 163.327225,202.270828 164.187927,202.151962
	C173.315826,200.891342 176.104828,193.813187 176.766586,186.631226
	C177.932983,173.972458 177.966400,161.179764 177.885971,148.446854
	C177.838776,140.975021 177.823959,133.156021 175.693222,126.130470
	C172.907883,116.946518 168.107147,114.217575 158.171188,115.012383
	C152.151230,115.493942 146.558365,121.319336 146.098419,128.816223
	C145.108612,144.949203 144.271973,161.114410 144.215805,177.269363
	C144.196335,182.866974 146.302078,188.595291 148.109909,194.040527
	C149.848373,199.276825 154.013977,201.995026 159.819809,202.138382
	C159.819809,209.312698 159.819809,216.423523 159.819809,225.081360
	C153.415192,223.327667 147.495270,221.706696 141.188385,220.033478
z"/>
<path fill="#000000" opacity="1.000000" stroke="none"
	d="
M296.000000,135.000000
	C296.000000,148.143890 296.000000,160.787796 296.000000,173.829803
	C300.614868,173.829803 305.032440,173.829803 309.719910,173.829803
	C309.719910,180.962112 309.719910,187.703049 309.719910,194.846130
	C305.368530,194.846130 300.950531,194.846130 296.143890,194.846130
	C296.143890,203.976776 296.143890,212.723312 296.143890,221.731430
	C287.009857,221.731430 278.270599,221.731430 269.243652,221.731430
	C269.243652,192.901108 269.243652,164.055344 269.243652,135.209595
	C268.784943,135.079926 268.326233,134.950272 267.867523,134.820602
	C259.838776,147.570450 251.810013,160.320297 243.394211,173.684784
	C251.846603,173.684784 259.558441,173.684784 267.635132,173.684784
	C267.635132,180.786407 267.635132,187.531494 267.635132,194.718124
	C266.709900,194.794098 265.456390,194.984665 264.202606,194.986572
	C250.202850,195.007843 236.199753,194.830902 222.205154,195.100616
	C217.875229,195.184067 216.671387,193.730103 216.907852,189.646759
	C217.083954,186.606216 216.219193,183.517410 216.210129,180.448959
	C216.205673,178.942078 216.800812,177.249207 217.618622,175.951965
	C228.605469,158.524261 239.685699,141.155472 250.729294,123.763535
	C256.166809,115.200287 261.474426,106.551361 267.095917,98.111107
	C268.075500,96.640327 270.292694,95.207191 271.994019,95.138527
	C279.793121,94.823715 287.612030,95.000046 296.000000,95.000046
	C296.000000,108.305016 296.000000,121.402512 296.000000,135.000000
z"/>
<path fill="#000000" opacity="1.000000" stroke="none"
	d="
M65.518433,175.997528
	C65.142494,173.019135 65.017067,170.348938 65.009804,167.678391
	C64.984482,158.351303 65.012108,149.024078 64.988022,139.696976
	C64.984032,138.151215 64.821983,136.605850 64.706459,134.599777
	C63.789429,135.231293 63.319611,135.391937 63.116013,135.718552
	C55.321709,148.221848 47.551807,160.740387 39.394836,173.874924
	C47.954834,173.874924 55.693611,173.874924 63.713444,173.874924
	C63.713444,180.948364 63.713444,187.685745 63.713444,194.713058
	C47.053253,194.713058 30.321806,194.713058 13.387284,194.713058
	C13.014850,189.667786 11.774727,184.392624 12.532385,179.421997
	C13.120071,175.566467 15.986096,171.952530 18.212166,168.469467
	C33.379574,144.737289 48.625015,121.054794 63.944557,97.420624
	C64.669601,96.302063 66.317986,95.139351 67.565460,95.106644
	C75.527962,94.897881 83.498627,95.000298 91.847168,95.000298
	C91.847168,121.314346 91.847168,147.376389 91.847168,173.832306
	C96.618515,173.832306 101.033981,173.832306 105.719597,173.832306
	C105.719597,180.958145 105.719597,187.696045 105.719597,194.832932
	C101.380051,194.832932 96.965065,194.832932 92.166077,194.832932
	C92.166077,203.955826 92.166077,212.698166 92.166077,221.717255
	C83.043411,221.717255 74.307709,221.717255 65.823120,221.717255
	C65.823120,206.617783 65.823120,191.461670 65.518433,175.997528
z"/>
</svg>
